<svg width="112" height="32" viewBox="0 0 112 32" fill="none" xmlns="http://www.w3.org/2000/svg">
<path d="M5.42249 11.3808L7.18409 28.8336C7.28169 29.5712 10.8433 31.9968 16.0001 32C21.1601 31.9968 24.7217 29.5712 24.8177 28.8336L26.5809 11.3808C23.8865 12.888 19.8593 13.6 16.0001 13.6C12.1441 13.6 8.11529 12.888 5.42249 11.3808ZM21.0689 2.416L19.6945 0.8944C19.1633 0.1376 18.5873 0 17.4657 0H14.5361C13.4161 0 12.8385 0.1376 12.3089 0.8944L10.9345 2.416C6.82249 3.1344 3.84009 5.04 3.84009 6.4464V6.7184C3.84009 9.1936 9.28489 11.2 16.0001 11.2C22.7169 11.2 28.1617 9.1936 28.1617 6.7184V6.4464C28.1617 5.04 25.1809 3.1344 21.0689 2.416ZM19.3121 6.944L17.6001 4.8H14.4001L12.6913 6.944H9.97129C9.97129 6.944 12.9505 3.3904 13.3489 2.9088C13.6529 2.5408 13.9633 2.4 14.3665 2.4H17.6353C18.0401 2.4 18.3505 2.5408 18.6545 2.9088C19.0513 3.3904 22.0321 6.944 22.0321 6.944H19.3121Z" fill="#FCFFFB"/>
<g clip-path="url(#clip0_201_10)">
<path d="M16 19C16.7956 19 17.5587 19.3161 18.1213 19.8787C18.6839 20.4413 19 21.2044 19 22C19 23.11 18.395 24.08 17.5 24.6V25.5C17.5 25.6326 17.4473 25.7598 17.3536 25.8536C17.2598 25.9473 17.1326 26 17 26H15C14.8674 26 14.7402 25.9473 14.6464 25.8536C14.5527 25.7598 14.5 25.6326 14.5 25.5V24.6C13.605 24.08 13 23.11 13 22C13 21.2044 13.3161 20.4413 13.8787 19.8787C14.4413 19.3161 15.2044 19 16 19ZM17 26.5V27C17 27.1326 16.9473 27.2598 16.8536 27.3536C16.7598 27.4473 16.6326 27.5 16.5 27.5H15.5C15.3674 27.5 15.2402 27.4473 15.1464 27.3536C15.0527 27.2598 15 27.1326 15 27V26.5H17ZM20 21.5H21.5V22.5H20V21.5ZM10.5 21.5H12V22.5H10.5V21.5ZM16.5 16.5V18H15.5V16.5H16.5ZM12.46 17.75L13.525 18.82L12.815 19.525L11.75 18.465L12.46 17.75ZM18.475 18.815L19.535 17.75L20.25 18.465L19.185 19.525L18.475 18.815Z" fill="#101010"/>
</g>
<path d="M33.2642 23V8.45455H39.0028C40.1013 8.45455 41.0388 8.65104 41.8153 9.04403C42.5966 9.43229 43.1908 9.9839 43.598 10.6989C44.0099 11.4091 44.2159 12.2448 44.2159 13.206C44.2159 14.1719 44.0076 15.0028 43.5909 15.6989C43.1742 16.3902 42.5705 16.9205 41.7798 17.2898C40.9938 17.6591 40.0421 17.8438 38.9247 17.8438H35.0824V15.3722H38.4276C39.0147 15.3722 39.5024 15.2917 39.8906 15.1307C40.2789 14.9697 40.5677 14.7282 40.7571 14.4062C40.9512 14.0843 41.0483 13.6842 41.0483 13.206C41.0483 12.723 40.9512 12.3158 40.7571 11.9844C40.5677 11.6529 40.2765 11.402 39.8835 11.2315C39.4953 11.0563 39.0052 10.9688 38.4134 10.9688H36.3395V23H33.2642ZM41.1193 16.3807L44.7344 23H41.3395L37.8026 16.3807H41.1193ZM51.1282 23.2131C50.006 23.2131 49.0401 22.9858 48.2305 22.5312C47.4255 22.072 46.8053 21.4233 46.3697 20.5852C45.9341 19.7424 45.7163 18.7457 45.7163 17.5952C45.7163 16.473 45.9341 15.4882 46.3697 14.6406C46.8053 13.7931 47.4184 13.1326 48.2092 12.6591C49.0046 12.1856 49.9374 11.9489 51.0075 11.9489C51.7272 11.9489 52.3971 12.0649 53.0174 12.2969C53.6424 12.5241 54.1869 12.8674 54.6509 13.3267C55.1197 13.786 55.4843 14.3636 55.7447 15.0597C56.0051 15.7509 56.1353 16.5606 56.1353 17.4886V18.3196H46.9237V16.4446H53.2873C53.2873 16.009 53.1926 15.6231 53.0032 15.2869C52.8138 14.9508 52.551 14.688 52.2148 14.4986C51.8834 14.3045 51.4975 14.2074 51.0572 14.2074C50.5979 14.2074 50.1907 14.3139 49.8356 14.527C49.4852 14.7353 49.2106 15.017 49.0117 15.3722C48.8129 15.7225 48.7111 16.1132 48.7063 16.544V18.3267C48.7063 18.8665 48.8058 19.3329 49.0046 19.7259C49.2082 20.1188 49.4947 20.4219 49.864 20.6349C50.2333 20.848 50.6713 20.9545 51.1779 20.9545C51.5141 20.9545 51.8219 20.9072 52.1012 20.8125C52.3806 20.7178 52.6197 20.5758 52.8185 20.3864C53.0174 20.197 53.1689 19.965 53.2731 19.6903L56.0714 19.875C55.9293 20.5473 55.6381 21.1345 55.1978 21.6364C54.7622 22.1335 54.1987 22.5218 53.5075 22.8011C52.8209 23.0758 52.0278 23.2131 51.1282 23.2131ZM56.5969 10.9901V8.45455H68.543V10.9901H64.0898V23H61.0501V10.9901H56.5969ZM69.3207 23V12.0909H72.2539V13.9943H72.3675C72.5664 13.3172 72.9002 12.8059 73.369 12.4602C73.8377 12.1098 74.3775 11.9347 74.9883 11.9347C75.1398 11.9347 75.3031 11.9441 75.4783 11.9631C75.6535 11.982 75.8074 12.008 75.94 12.0412V14.7259C75.7979 14.6832 75.6014 14.6454 75.3505 14.6122C75.0996 14.5791 74.8699 14.5625 74.6616 14.5625C74.2165 14.5625 73.8188 14.6596 73.4684 14.8537C73.1228 15.0431 72.8481 15.3082 72.6445 15.6491C72.4457 15.9901 72.3462 16.383 72.3462 16.8281V23H69.3207ZM80.3026 23.206C79.6065 23.206 78.9863 23.0852 78.4418 22.8438C77.8973 22.5975 77.4664 22.2353 77.1491 21.7571C76.8366 21.2741 76.6804 20.6728 76.6804 19.9531C76.6804 19.3471 76.7917 18.8381 77.0142 18.4261C77.2367 18.0142 77.5398 17.6828 77.9233 17.4318C78.3068 17.1809 78.7424 16.9915 79.2301 16.8636C79.7225 16.7358 80.2386 16.6458 80.7784 16.5938C81.4129 16.5275 81.9242 16.4659 82.3125 16.4091C82.7008 16.3475 82.9825 16.2576 83.1577 16.1392C83.3329 16.0208 83.4205 15.8456 83.4205 15.6136V15.571C83.4205 15.1212 83.2784 14.7732 82.9943 14.527C82.715 14.2808 82.3172 14.1577 81.8011 14.1577C81.2566 14.1577 80.8234 14.2784 80.5014 14.5199C80.1795 14.7566 79.9664 15.0549 79.8622 15.4148L77.0639 15.1875C77.206 14.5246 77.4853 13.9517 77.902 13.4688C78.3187 12.9811 78.8561 12.607 79.5142 12.3466C80.1771 12.0814 80.9441 11.9489 81.8153 11.9489C82.4214 11.9489 83.0014 12.0199 83.5554 12.1619C84.1141 12.304 84.6089 12.5241 85.0398 12.8224C85.4754 13.1207 85.8187 13.5043 86.0696 13.973C86.3205 14.437 86.446 14.9934 86.446 15.642V23H83.5767V21.4872H83.4915C83.3163 21.8281 83.0819 22.1288 82.7884 22.3892C82.4948 22.6449 82.142 22.8461 81.7301 22.9929C81.3182 23.1349 80.8423 23.206 80.3026 23.206ZM81.169 21.1179C81.6141 21.1179 82.0071 21.0303 82.348 20.8551C82.6889 20.6752 82.9564 20.4337 83.1506 20.1307C83.3447 19.8277 83.4418 19.4844 83.4418 19.1009V17.9432C83.3471 18.0047 83.2169 18.0616 83.0511 18.1136C82.8902 18.161 82.7079 18.206 82.5043 18.2486C82.3007 18.2865 82.0971 18.322 81.8935 18.3551C81.6899 18.3835 81.5052 18.4096 81.3395 18.4332C80.9844 18.4853 80.6742 18.5682 80.4091 18.6818C80.1439 18.7955 79.938 18.9493 79.7912 19.1435C79.6444 19.3329 79.571 19.5696 79.571 19.8537C79.571 20.2656 79.7202 20.5805 80.0185 20.7983C80.3215 21.0114 80.705 21.1179 81.169 21.1179ZM97.87 15.2017L95.1001 15.3722C95.0528 15.1354 94.951 14.9223 94.7947 14.733C94.6385 14.5388 94.4325 14.3849 94.1768 14.2713C93.9259 14.1529 93.6252 14.0938 93.2749 14.0938C92.8061 14.0938 92.4107 14.1932 92.0888 14.392C91.7668 14.5862 91.6058 14.8466 91.6058 15.1733C91.6058 15.4337 91.71 15.6539 91.9183 15.8338C92.1267 16.0137 92.4841 16.1581 92.9908 16.267L94.9652 16.6648C96.0258 16.8826 96.8165 17.233 97.3374 17.7159C97.8582 18.1989 98.1186 18.8333 98.1186 19.6193C98.1186 20.3343 97.9079 20.9616 97.4865 21.5014C97.0698 22.0412 96.4969 22.4626 95.7678 22.7656C95.0433 23.0639 94.2076 23.2131 93.2607 23.2131C91.8165 23.2131 90.666 22.9124 89.8089 22.3111C88.9567 21.705 88.4571 20.8812 88.3104 19.8395L91.2862 19.6832C91.3762 20.1236 91.594 20.4598 91.9396 20.6918C92.2853 20.919 92.728 21.0327 93.2678 21.0327C93.7981 21.0327 94.2242 20.9309 94.5462 20.7273C94.8729 20.5189 95.0386 20.2514 95.0433 19.9247C95.0386 19.6501 94.9226 19.4252 94.6953 19.25C94.468 19.0701 94.1177 18.9328 93.6442 18.8381L91.755 18.4616C90.6896 18.2486 89.8965 17.8793 89.3757 17.3537C88.8596 16.8281 88.6016 16.1581 88.6016 15.3438C88.6016 14.643 88.791 14.0393 89.1697 13.5327C89.5533 13.026 90.0907 12.6354 90.782 12.3608C91.478 12.0862 92.2924 11.9489 93.2251 11.9489C94.603 11.9489 95.6873 12.2401 96.478 12.8224C97.2734 13.4048 97.7375 14.1979 97.87 15.2017ZM103.049 16.6932V23H100.024V8.45455H102.964V14.0156H103.092C103.338 13.3717 103.736 12.8674 104.285 12.5028C104.834 12.1335 105.523 11.9489 106.352 11.9489C107.109 11.9489 107.77 12.1146 108.333 12.446C108.902 12.7727 109.342 13.2438 109.654 13.8594C109.972 14.4702 110.128 15.2017 110.123 16.054V23H107.098V16.5938C107.102 15.9214 106.932 15.3982 106.586 15.0241C106.245 14.6501 105.767 14.4631 105.152 14.4631C104.74 14.4631 104.375 14.5507 104.058 14.7259C103.745 14.901 103.499 15.1567 103.319 15.4929C103.144 15.8243 103.054 16.2244 103.049 16.6932Z" fill="#FCFFFB"/>
<defs>
<clipPath id="clip0_201_10">
<rect width="12" height="12" fill="white" transform="translate(10 16)"/>
</clipPath>
</defs>
</svg>
